<svg width="101" height="102" viewBox="0 0 101 102" fill="none" xmlns="http://www.w3.org/2000/svg">
<g clip-path="url(#clip0_202_75)">
<path d="M50.5 0.181854C31.1633 0.181854 15.4316 16.1015 15.4316 35.6693C15.4316 42.2806 17.2414 48.7326 20.6664 54.3302L48.5038 99.7259C49.0371 100.596 49.9765 101.124 50.9869 101.124C50.9947 101.124 51.0023 101.124 51.0101 101.124C52.0292 101.116 52.9706 100.571 53.4941 99.6862L80.622 53.8507C83.858 48.3714 85.5684 42.0844 85.5684 35.6693C85.5684 16.1015 69.8367 0.181854 50.5 0.181854ZM75.6062 50.8141L50.9426 92.4859L25.634 51.214C22.7831 46.5549 21.2374 41.1797 21.2374 35.6693C21.2374 19.3628 34.3861 6.057 50.5 6.057C66.6139 6.057 79.7431 19.3628 79.7431 35.6693C79.7431 41.0163 78.2993 46.254 75.6062 50.8141Z" fill="black"/>
<path d="M50.5 17.9256C40.8317 17.9256 32.9658 25.8854 32.9658 35.6693C32.9658 45.3907 40.7037 53.413 50.5 53.413C60.4171 53.413 68.0342 45.2838 68.0342 35.6693C68.0342 25.8854 60.1683 17.9256 50.5 17.9256ZM50.5 47.5379C44.0207 47.5379 38.7716 42.2082 38.7716 35.6693C38.7716 29.1467 44.0544 23.8007 50.5 23.8007C56.9456 23.8007 62.2089 29.1467 62.2089 35.6693C62.2089 42.1128 57.0819 47.5379 50.5 47.5379Z" fill="black"/>
</g>
<defs>
<clipPath id="clip0_202_75">
<rect width="99.75" height="100.942" fill="red" transform="translate(0.625 0.181854)"/>
</clipPath>
</defs>
</svg>
